<svg width="40" height="40" viewBox="0 0 40 40" fill="none" xmlns="http://www.w3.org/2000/svg">
<path d="M22 34H11C5.47715 34 1 29.5228 1 24V11C1 5.47715 5.47715 1 11 1H24C29.5228 1 34 5.47715 34 11V23" stroke="#6873A0" stroke-width="2"/>
<path d="M22.1719 13.875H14.0469C13.6914 13.875 13.4375 14.1543 13.4375 14.4844C13.4375 14.8398 13.6914 15.0938 14.0469 15.0938H22.1719C22.502 15.0938 22.7812 15.373 22.7812 15.7031V20.9844C22.7812 21.3398 22.502 21.5938 22.1719 21.5938H13.2344C12.6504 21.5938 12.2188 21.1621 12.2188 20.5781V13.6719C12.2188 13.1133 12.6504 12.6562 13.2344 12.6562H22.5781C22.9082 12.6562 23.1875 12.4023 23.1875 12.0469C23.1875 11.7168 22.9082 11.4375 22.5781 11.4375H13.2344C11.9902 11.4375 11 12.4531 11 13.6719V20.5781C11 21.8223 11.9902 22.8125 13.2344 22.8125H22.1719C23.1621 22.8125 24 22 24 20.9844V15.7031C24 14.7129 23.1621 13.875 22.1719 13.875ZM21.5625 18.3438C21.5625 17.9121 21.1816 17.5312 20.75 17.5312C20.293 17.5312 19.9375 17.9121 19.9375 18.3438C19.9375 18.8008 20.293 19.1562 20.75 19.1562C21.1816 19.1562 21.5625 18.8008 21.5625 18.3438Z" fill="#58BDFF"/>
<path d="M27.974 32.5447C26.8614 33.6572 26.8738 35.4043 28.0023 36.5328C29.1308 37.6613 30.8779 37.6737 31.9904 36.5611L32.9804 35.5712C33.2537 35.2978 33.7001 35.301 33.9774 35.5783C34.2547 35.8555 34.2579 36.3019 33.9845 36.5753L32.9945 37.5653C31.3352 39.2245 28.6954 39.2058 27.0123 37.5228C25.3293 35.8397 25.3106 33.1999 26.9698 31.5406L27.9598 30.5506C28.2332 30.2772 28.6796 30.2804 28.9568 30.5577C29.2341 30.835 29.2373 31.2814 28.9639 31.5547L27.974 32.5447ZM29.9468 29.5677C29.6695 29.2905 29.6663 28.8441 29.9397 28.5707L30.9296 27.5808C32.5889 25.9215 35.2288 25.9402 36.9118 27.6233C38.5949 29.3063 38.6136 31.9462 36.9543 33.6055L35.9644 34.5954C35.691 34.8688 35.2446 34.8656 34.9674 34.5883C34.6901 34.311 34.6869 33.8647 34.9603 33.5913L35.9502 32.6013C37.0628 31.4888 37.0504 29.7417 35.9219 28.6132C34.7934 27.4847 33.0463 27.4723 31.9338 28.5849L30.9438 29.5748C30.6704 29.8482 30.2241 29.845 29.9468 29.5677ZM29.4872 35.0479C29.2099 34.7706 29.2068 34.3242 29.4801 34.0508L33.4399 30.091C33.7133 29.8177 34.1597 29.8209 34.437 30.0981C34.7142 30.3754 34.7174 30.8218 34.4441 31.0952L30.4843 35.055C30.2109 35.3283 29.7645 35.3252 29.4872 35.0479Z" fill="#6873A0"/>
</svg>
