<svg width="40" height="40" viewBox="0 0 40 40" fill="none" xmlns="http://www.w3.org/2000/svg">
<path d="M22 34H11C5.47715 34 1 29.5228 1 24V11C1 5.47715 5.47715 1 11 1H24C29.5228 1 34 5.47715 34 11V23" stroke="#6873A0" stroke-width="2"/>
<path d="M29.4375 30.5H27.8125C27.3555 30.5 27 30.8555 27 31.2871V36.9492C27 37.3809 27.3555 37.7363 27.8125 37.7363H29.4375C29.8691 37.7363 30.25 37.3809 30.25 36.9492V31.3125C30.25 30.8809 29.8691 30.5 29.4375 30.5ZM40 31.3887C40 30.4746 39.2129 29.7129 38.2988 29.7129H35.7598C35.9883 29.0781 36.1406 28.5195 36.1406 28.1895C36.1406 27.3262 35.4551 26.4629 34.3379 26.4629C33.1699 26.4629 32.8398 27.2754 32.5859 27.9355C31.7734 29.9922 31.0625 29.6113 31.0625 30.2969C31.0625 30.627 31.3164 30.9062 31.6719 30.9062C31.7988 30.9062 31.9258 30.8809 32.0273 30.7793C33.9824 29.2305 33.5 27.6816 34.3379 27.6816C34.7695 27.6816 34.9219 27.9863 34.9219 28.1895C34.9219 28.3926 34.7188 29.2051 34.2617 30.0176C34.2109 30.1191 34.1855 30.2207 34.1855 30.3223C34.1855 30.6777 34.4648 30.9062 34.7949 30.9062H38.2734C38.5527 30.9316 38.7812 31.1348 38.7812 31.3887C38.7812 31.6426 38.5781 31.8711 38.3242 31.8711C37.9941 31.8965 37.7402 32.1758 37.7402 32.4805C37.7402 32.8867 38.0449 32.8867 38.0449 33.2168C38.0449 33.8516 37.1562 33.5215 37.1562 34.2832C37.1562 34.5625 37.3086 34.6133 37.3086 34.8418C37.3086 35.4258 36.5469 35.1973 36.5469 35.8828C36.5469 36.0098 36.5977 36.0352 36.5977 36.1367C36.5977 36.3906 36.3691 36.6191 36.1152 36.6191H34.7695C34.1094 36.6191 33.4746 36.3906 32.9668 36.0098L32.0273 35.2988C31.9258 35.2227 31.7988 35.1719 31.6719 35.1719C31.3164 35.1719 31.0371 35.4766 31.0371 35.7812C31.0371 35.9844 31.1387 36.1621 31.291 36.2891L32.2305 36.9746C32.9668 37.5332 33.8555 37.8125 34.7695 37.8125H36.1152C37.0039 37.8125 37.7402 37.127 37.791 36.2383C38.248 35.9336 38.5273 35.4258 38.5273 34.8418C38.5273 34.7656 38.5273 34.6895 38.5273 34.6133C38.959 34.3086 39.2637 33.8008 39.2637 33.2168C39.2637 33.0898 39.2383 32.9629 39.2129 32.8105C39.6699 32.5059 40 31.998 40 31.3887Z" fill="#6873A0"/>
<path d="M23.1875 10.625C23.0859 10.625 23.0098 10.6504 22.9336 10.6758L15.2148 13.1133C14.8848 13.2148 14.6562 13.5195 14.6562 13.875V19.8672C14.2754 19.6641 13.8438 19.5625 13.4375 19.5625C12.0664 19.5625 11 20.4766 11 21.5938C11 22.7363 12.0664 23.625 13.4121 23.625C14.6562 23.625 15.6719 22.8379 15.7988 21.8223C15.8242 21.7715 15.8496 21.6699 15.8496 21.6191L15.875 17.125L22.7812 14.9668V18.2422C22.4004 18.0391 21.9688 17.9375 21.5371 17.9375C20.1914 17.9375 19.125 18.8516 19.125 19.9688C19.125 21.0605 20.1914 21.9746 21.5371 21.9746C22.8066 21.9746 23.8223 21.1621 23.9746 20.1719C23.9746 20.0957 23.9746 20.0195 24 19.9434V11.4375C24 11.0059 23.6191 10.625 23.1875 10.625ZM13.4375 22.4062C12.7012 22.4062 12.2188 22 12.2188 21.5938C12.2188 21.2129 12.7012 20.7812 13.4375 20.7812C14.1484 20.7812 14.6562 21.2129 14.6562 21.5938C14.6562 22 14.1484 22.4062 13.4375 22.4062ZM22.7812 19.9688C22.7812 20.375 22.2734 20.7812 21.5625 20.7812C20.8262 20.7812 20.3438 20.375 20.3438 19.9688C20.3438 19.5879 20.8262 19.1562 21.5625 19.1562C22.2734 19.1562 22.7812 19.5879 22.7812 19.9688ZM22.7812 13.6719L15.875 15.8555V14.1797L22.7812 11.9961V13.6719Z" fill="#58BDFF"/>
</svg>
