<svg width="40" height="40" viewBox="0 0 40 40" fill="none" xmlns="http://www.w3.org/2000/svg">
<path d="M23 34H12C6.47715 34 2 29.5228 2 24V11C2 5.47715 6.47715 1 12 1H25C30.5228 1 35 5.47715 35 11V23" stroke="#6873A0" stroke-width="2"/>
<path d="M30.4434 37.1875C29.7578 37.1875 29.25 37.7461 29.25 38.4062C29.25 39.0918 29.7832 39.625 30.4434 39.625C31.0781 39.625 31.6367 39.0918 31.6367 38.4062C31.6367 37.7461 31.1289 37.1875 30.4434 37.1875ZM37.7559 37.1875C37.0703 37.1875 36.5625 37.7461 36.5625 38.4062C36.5625 39.0918 37.0957 39.625 37.7559 39.625C38.3906 39.625 38.9492 39.0918 38.9492 38.4062C38.9492 37.7461 38.4414 37.1875 37.7559 37.1875ZM40.4473 27.7676C40.2949 27.5645 40.0664 27.4375 39.7871 27.4375H29.0723L29.0215 27.1328C28.9707 26.8535 28.7168 26.625 28.4375 26.625H26.584C26.2539 26.625 26 26.9043 26 27.2344C26 27.5898 26.2539 27.8438 26.584 27.8438H27.9043L29.4277 35.8926C29.5039 36.1719 29.7578 36.375 30.0625 36.375H38.3906C38.7207 36.375 39 36.1211 39 35.791C39 35.4355 38.7207 35.1562 38.3906 35.1562H30.5449L30.3164 33.9375H38.416C38.7715 33.9375 39.0762 33.709 39.1777 33.3535L40.5742 28.5039C40.6504 28.25 40.5996 27.9707 40.4473 27.7676ZM38.1113 32.7188H30.0879L29.3262 28.6562H39.2539L38.1113 32.7188Z" fill="#6873A0"/>
<path d="M21.0278 16.0556C21.6261 16.0556 22.1111 15.5705 22.1111 14.9722C22.1111 14.3739 21.6261 13.8889 21.0278 13.8889C20.4295 13.8889 19.9444 14.3739 19.9444 14.9722C19.9444 15.5705 20.4295 16.0556 21.0278 16.0556Z" fill="#58BDFF"/>
<path d="M12 12.4444C12 11.6467 12.6467 11 13.4444 11H23.5556C24.3533 11 25 11.6467 25 12.4444V22.5556C25 23.3533 24.3533 24 23.5556 24H13.4444C12.6467 24 12 23.3533 12 22.5556V12.4444ZM23.5556 12.4444H13.4444V18.164L15.8822 16.2138C16.146 16.0028 16.5208 16.0028 16.7845 16.2138L19.8909 18.6989L20.8782 17.7115C21.1603 17.4295 21.6176 17.4295 21.8996 17.7115L23.5556 19.3675V12.4444ZM13.4444 22.5556H23.5556V21.4102L21.3889 19.2436L20.4552 20.1774C20.1949 20.4376 19.7807 20.4605 19.4933 20.2306L16.3334 17.7027L13.4444 20.0138V22.5556Z" fill="#58BDFF"/>
</svg>
