<svg width="14" height="13" viewBox="0 0 14 13" fill="none" xmlns="http://www.w3.org/2000/svg">
<path d="M14 2.00309C14 0.448499 12.3041 -0.511726 10.971 0.288103L3.91466 4.52191C2.61998 5.29872 2.61998 7.17508 3.91466 7.95188L10.971 12.1857C12.3041 12.9855 14 12.0253 14 10.4707V2.00309ZM4.94365 6.2369L12 2.00309V10.4707L4.94365 6.2369Z" fill="white"/>
<path d="M1 0.236898C1.55228 0.236898 2 0.684614 2 1.2369V11.2369C2 11.7892 1.55228 12.2369 1 12.2369C0.447715 12.2369 0 11.7892 0 11.2369V1.2369C0 0.684614 0.447715 0.236898 1 0.236898Z" fill="white"/>
</svg>
