<svg width="17" height="19" viewBox="0 0 17 19" fill="none" xmlns="http://www.w3.org/2000/svg">
<path d="M16.9283 3.43636C16.8822 3.32431 16.8139 3.21933 16.7234 3.12825L13.89 0.278249C13.5212 -0.0927495 12.9232 -0.0927495 12.5544 0.278249C12.1856 0.649247 12.1856 1.25075 12.5544 1.62175L13.7755 2.85L4.72222 2.85C2.11421 2.85 0 4.97665 0 7.6V9.5C0 10.0247 0.422842 10.45 0.944444 10.45C1.46605 10.45 1.88889 10.0247 1.88889 9.5L1.88889 7.6C1.88889 6.02599 3.15741 4.75 4.72222 4.75L13.7755 4.75L12.5544 5.97825C12.1856 6.34925 12.1856 6.95075 12.5544 7.32175C12.9232 7.69275 13.5212 7.69275 13.89 7.32175L16.7227 4.47248C16.725 4.47017 16.7272 4.46785 16.7295 4.46552C16.9098 4.28083 17 4.04041 17 3.8" fill="white"/>
<path d="M16.9283 3.43636C16.9742 3.54754 16.9996 3.66938 17 3.79715L16.9283 3.43636Z" fill="white"/>
<path d="M0.0716638 14.8364C0.0254868 14.9484 4.50346e-07 15.0712 4.50346e-07 15.2C4.50346e-07 15.4623 0.105711 15.6998 0.276622 15.8718L3.10995 18.7218C3.47878 19.0928 4.07677 19.0928 4.4456 18.7218C4.81443 18.3508 4.81443 17.7492 4.4456 17.3783L3.22454 16.15L12.2778 16.15C14.8858 16.15 17 14.0234 17 11.4V9.5C17 8.97533 16.5772 8.55 16.0556 8.55C15.534 8.55 15.1111 8.97533 15.1111 9.5V11.4C15.1111 12.974 13.8426 14.25 12.2778 14.25L3.22454 14.25L4.4456 13.0218C4.81443 12.6508 4.81443 12.0492 4.4456 11.6782C4.07677 11.3073 3.47878 11.3073 3.10996 11.6782L0.276872 14.528" fill="white"/>
<path d="M0.0716638 14.8364C0.117413 14.7251 0.185065 14.6209 0.274622 14.5303L0.0716638 14.8364Z" fill="white"/>
</svg>
